<svg id="Layer_1" data-name="Layer 1" xmlns="http://www.w3.org/2000/svg" xmlns:xlink="http://www.w3.org/1999/xlink" viewBox="0 0 1369.01 768.44"><defs><style>.cls-1{fill:url(#linear-gradient);}.cls-2{fill:url(#linear-gradient-2);}.cls-3{fill:url(#linear-gradient-3);}.cls-4{fill:url(#linear-gradient-4);}</style><linearGradient id="linear-gradient" x1="990.69" y1="205.57" x2="-156.24" y2="867.75" gradientUnits="userSpaceOnUse"><stop offset="0" stop-color="#2aa9ff"/><stop offset="1" stop-color="#3fffec"/></linearGradient><linearGradient id="linear-gradient-2" x1="90.8" y1="506.33" x2="-67.21" y2="597.56" gradientUnits="userSpaceOnUse"><stop offset="0" stop-color="#91a9ff"/><stop offset="1" stop-color="#3fffec" stop-opacity="0"/></linearGradient><linearGradient id="linear-gradient-3" x1="1364.11" y1="517.46" x2="1192.74" y2="616.4" gradientTransform="matrix(1.17, 0, 0, 1.16, -175.77, -20.19)" xlink:href="#linear-gradient-2"/><linearGradient id="linear-gradient-4" x1="1376.69" y1="465.51" x2="1295.55" y2="512.36" gradientTransform="matrix(1.26, -0.37, 0.29, 1.06, -487.68, 457.65)" gradientUnits="userSpaceOnUse"><stop offset="0" stop-color="#ef72ff"/><stop offset="1" stop-color="#3fffec" stop-opacity="0"/></linearGradient></defs><title>Untitled-2</title><path class="cls-1" d="M-.5-.5h683s-13,112,127,127,15,368,343,343c169-33,213,298,213,298H-.5Z" transform="translate(0.5 0.5)"/><path class="cls-2" d="M0,437A113,113,0,0,1,0,663" transform="translate(0.5 0.5)"/><path class="cls-3" d="M1366,767.94l-83.11-47.46A71.28,71.28,0,0,1,1247,658.66l-.11-94.11a71.27,71.27,0,0,1,35.78-61.9l83-47.66" transform="translate(0.5 0.5)"/><path class="cls-4" d="M1365.31,549.67l-2.75-24.83a8.65,8.65,0,0,0-5.72-7l-81.18-31.68c-8.13-3.17-7.54-13.47,1-17.43L1362,429.2a11.47,11.47,0,0,0,6.56-7.6" transform="translate(0.5 0.5)"/></svg>